<?xml version="1.0" encoding="UTF-8" standalone="no"?>
<!-- Created with Inkscape (http://www.inkscape.org/) -->

<svg
   xmlns:dc="http://purl.org/dc/elements/1.1/"
   xmlns:cc="http://creativecommons.org/ns#"
   xmlns:rdf="http://www.w3.org/1999/02/22-rdf-syntax-ns#"
   xmlns:svg="http://www.w3.org/2000/svg"
   xmlns="http://www.w3.org/2000/svg"
   xmlns:sodipodi="http://sodipodi.sourceforge.net/DTD/sodipodi-0.dtd"
   xmlns:inkscape="http://www.inkscape.org/namespaces/inkscape"
   width="148mm"
   height="210mm"
   viewBox="0 0 524.40944 744.09448"
   id="svg2"
   version="1.1"
   inkscape:version="0.91 r13725"
   sodipodi:docname="mine_deterres.svg"
   inkscape:export-filename="/home/lise/textes/public/recueils/sorcieres_zombies/couv/mine_deterres.png"
   inkscape:export-xdpi="90"
   inkscape:export-ydpi="90">
  <defs
     id="defs4" />
  <sodipodi:namedview
     id="base"
     pagecolor="#fd0000"
     bordercolor="#666666"
     borderopacity="1.0"
     inkscape:pageopacity="1"
     inkscape:pageshadow="2"
     inkscape:zoom="0.49497475"
     inkscape:cx="360.37379"
     inkscape:cy="634.42255"
     inkscape:document-units="mm"
     inkscape:current-layer="layer1"
     showgrid="false"
     showguides="true"
     inkscape:guide-bbox="true"
     fit-margin-top="0"
     fit-margin-left="0"
     fit-margin-right="0"
     fit-margin-bottom="0"
     inkscape:window-width="1366"
     inkscape:window-height="704"
     inkscape:window-x="0"
     inkscape:window-y="27"
     inkscape:window-maximized="1">
    <sodipodi:guide
       position="528.57144,924.28571"
       orientation="1,0"
       id="guide4140" />
    <sodipodi:guide
       position="798.02052,730.34029"
       orientation="1,0"
       id="guide4808" />
    <sodipodi:guide
       position="267.69043,732.36059"
       orientation="1,0"
       id="guide5465" />
  </sodipodi:namedview>
  <metadata
     id="metadata7">
    <rdf:RDF>
      <cc:Work
         rdf:about="">
        <dc:format>image/svg+xml</dc:format>
        <dc:type
           rdf:resource="http://purl.org/dc/dcmitype/StillImage" />
        <dc:title></dc:title>
      </cc:Work>
    </rdf:RDF>
  </metadata>
  <g
     inkscape:label="Layer 1"
     inkscape:groupmode="layer"
     id="layer1"
     transform="translate(0,-308.26772)">
    <text
       style="font-style:normal;font-variant:normal;font-weight:normal;font-stretch:normal;font-size:47.12255478px;line-height:100%;font-family:'EB Garamond SC';-inkscape-font-specification:'EB Garamond SC, Normal';text-align:start;writing-mode:lr-tb;text-anchor:start;fill:#000000;fill-opacity:1;stroke:none"
       y="364.59329"
       x="62.006397"
       sodipodi:linespacing="100%"
       id="text3196"
       xml:space="preserve"><tspan
         sodipodi:role="line"
         id="tspan7622"
         x="62.006397"
         y="364.59329">Lizzie Crowdagger</tspan></text>
    <text
       style="font-style:normal;font-variant:normal;font-weight:normal;font-stretch:normal;font-size:101.1937561px;line-height:100%;font-family:'EB Garamond SC';-inkscape-font-specification:'EB Garamond SC, Normal';text-align:center;writing-mode:lr-tb;text-anchor:middle;fill:#000000;fill-opacity:1;stroke:none"
       y="455.29047"
       x="273.36722"
       sodipodi:linespacing="100%"
       id="text3196-6-9-9"
       xml:space="preserve"
       transform="scale(0.96530556,1.0359414)"><tspan
         sodipodi:role="line"
         id="tspan6303"
         x="273.36722"
         y="455.29047">Une mine de</tspan><tspan
         sodipodi:role="line"
         id="tspan6305"
         x="273.36722"
         y="556.48419">déterrés</tspan></text>
    <g
       id="g5921"
       transform="matrix(0.16954802,0,0,0.16954802,206.28836,914.86298)">
      <path
         id="path2384"
         d="m 361.53851,350.61949 c -1.8038,-1.8279 -3.3944,-3.0008 -7.4819,-5.5173 -4.0658,-2.503 -5.436,-3.6981 -6.3481,-5.5366 -0.35474,-0.71503 -0.48587,-1.321 -0.58597,-2.7077 -0.10045,-1.3917 -0.0481,-4.9696 0.0891,-6.0872 0.15466,-1.2601 0.40027,-2.5447 0.68494,-3.5826 0.78006,-2.8436 1.7562,-4.6964 4.5479,-8.6324 2.1476,-3.0278 3.0554,-4.9384 3.4901,-7.3452 0.33736,-1.8679 0.48103,-5.757 0.28525,-7.7221 -0.41158,-4.1312 -1.7175,-7.021 -3.5671,-7.8932 -0.47757,-0.22527 -0.61186,-0.25058 -1.3812,-0.26122 -1.6665,-0.0229 -2.5057,-0.37685 -12.296,-5.186 -8.5606,-4.205 -10.222,-4.9864 -14.406,-6.7746 -4.9445,-2.1133 -9.0178,-3.4881 -12.254,-4.136 -2.6052,-0.52159 -4.2528,-0.56752 -6.498,-0.18088 -7.6456,1.3165 -14.715,4.299 -18.753,7.9112 -1.5791,1.4128 -1.8883,1.8951 -5.7592,8.9843 -3.2124,5.883 -5.0189,9.0873 -6.6348,11.768 -2.4045,3.9895 -4.1745,6.4384 -5.0936,7.0472 -0.66103,0.43788 -0.97224,0.3036 -1.2301,-0.53067 -0.21229,-0.68686 -0.19264,-4.9833 0.041,-8.9514 0.28806,-4.8932 0.36478,-7.4756 0.31715,-10.673 -0.0894,-5.9966 -0.59888,-9.1825 -2.0638,-12.905 -1.3063,-3.3194 -2.552,-5.7479 -4.5585,-8.8872 -1.5748,-2.464 -1.9382,-3.3993 -1.8477,-4.7568 0.11356,-1.7047 0.96258,-2.9965 5.7992,-8.8234 3.6118,-4.3512 5.1476,-6.4311 5.919,-8.0153 0.63613,-1.3065 0.75735,-2.2585 0.35885,-2.8182 -0.62177,-0.87318 -6.5844,-4.1166 -18.151,-9.8737 -19.043,-9.4781 -36.709,-17.494 -38.553,-17.494 -0.13462,0 -0.88347,0.14839 -1.6641,0.32976 -2.3587,0.54796 -8.4321,1.8616 -8.6067,1.8616 -0.0898,0 -0.81038,-0.36028 -1.6012,-0.80058 -7.356,-4.0963 -12.876,-6.3743 -14.605,-6.0272 -0.23554,0.0473 -0.4769,0.0674 -0.53637,0.0446 -0.44676,-0.17145 -0.81826,-2.5066 -1.0255,-6.4462 -0.14869,-2.826 -0.24887,-9.9472 -0.33058,-23.496 -0.0915,-15.167 -0.1619,-18.087 -0.5271,-21.846 -0.22928,-2.3602 -0.3821,-3.0076 -0.9782,-4.1442 -0.50419,-0.96141 -0.55376,-1.2944 -0.23948,-1.6086 0.82525,-0.82528 4.9732,1.044 5.926,2.6705 0.22632,0.38633 0.33996,0.97871 0.93642,4.8813 1.9944,13.05 3.6514,19.247 5.3859,20.144 0.2247,0.11626 0.26658,0.11487 0.51002,-0.0162 0.84611,-0.45566 2.4626,-3.4118 4.6152,-8.44 4.6152,-10.78 10.693,-28.738 11.812,-34.9 0.0892,-0.49097 0.18516,-1.287 0.21326,-1.7689 0.0281,-0.4818 0.0794,-0.84703 0.11405,-0.81157 0.0346,0.0355 0.34189,1.7263 0.68281,3.7573 0.98284,5.8554 1.6934,9.143 2.5229,11.672 0.44511,1.3573 1.1935,2.9053 1.6946,3.5049 0.43614,0.52207 0.48494,0.66852 0.42886,1.2869 -0.0525,0.57857 -0.341,1.2177 -1.1988,2.6551 -1.4029,2.3509 -1.9749,3.5872 -2.4658,5.3293 -0.34368,1.2196 -0.73922,2.2878 -1.8676,5.0433 -1.2174,2.973 -1.4884,3.9206 -1.2326,4.3109 0.18803,0.28697 0.51914,0.26456 1.1733,-0.0795 0.89528,-0.47092 1.9325,-1.3088 3.2637,-2.6363 2.5542,-2.5472 4.9289,-5.4467 10.87,-13.272 3.5334,-4.6541 4.9611,-6.3712 5.2971,-6.3712 0.0776,0 0.14387,0.10967 0.17879,0.29582 0.0427,0.22755 0.23924,0.48716 0.85138,1.1243 0.88893,0.92537 1.2205,1.4992 1.4423,2.4968 0.16386,0.73679 0.18132,2.7902 0.0329,3.8747 -0.5486,4.01 -2.2233,9.2452 -5.3883,16.845 -1.3732,3.2972 -1.7559,4.5305 -1.6626,5.3582 0.17617,1.563 2.0298,0.80304 6.8376,-2.8031 0.93743,-0.7031 2.8355,-2.1457 4.218,-3.2058 7.182,-5.5071 11.295,-8.1009 14.733,-9.2918 1.5342,-0.53132 1.88,-0.57077 5.8031,-0.6621 3.9717,-0.0924 5.0988,-0.0786 5.2414,0.0643 0.23623,0.23664 -0.0405,0.57484 -2.5118,3.0698 -3.1605,3.1908 -5.917,6.1315 -7.0384,7.5091 -1.0698,1.3142 -1.4896,2.075 -1.4924,2.7051 -0.002,0.33243 0.0354,0.42831 0.23783,0.61737 0.38946,0.36377 0.85716,0.45112 2.3576,0.44032 3.1945,-0.023 9.0665,-1.3022 21.191,-4.6164 4.4845,-1.2258 6.5456,-1.681 7.6788,-1.6958 0.75774,-0.01 0.98042,0.10432 0.87421,0.44884 -0.0325,0.10545 -0.90781,1.0317 -1.9451,2.0584 -2.0367,2.0159 -2.3141,2.3878 -2.3141,3.1033 0,0.93511 1.2122,2.1644 3.328,3.375 3.1026,1.7752 7.0288,2.8308 10.551,2.8365 1.7055,0.003 2.5464,-0.10456 4.2292,-0.53969 1.4996,-0.38772 2.5368,-0.48821 4.4145,-0.4279 1.912,0.0614 3.0622,0.18339 7.0206,0.7445 6.7604,0.95834 9.0628,1.1006 11.672,0.7208 1.5596,-0.22698 3.077,-0.78534 4.0026,-1.4728 0.55968,-0.41564 1.2497,-1.1466 1.6668,-1.7656 2.5957,-3.8522 9.7044,-20.134 19.685,-45.086 2.9716,-7.4292 6.2391,-15.742 8.5174,-21.67 0.71199,-1.8525 1.4115,-3.5669 1.5544,-3.8097 0.6058,-1.029 1.8695,-2.1329 3.6429,-3.1823 2.0641,-1.2214 3.9806,-2.0365 10.983,-4.6709 6.7979,-2.5575 9.9191,-3.8732 13.635,-5.7478 4.5896,-2.3151 5.2172,-2.73 15.424,-10.197996 8.2656,-6.0474 11.367,-8.2859 15.196,-10.97 13.45,-9.4264 22.326,-14.414 28.626,-16.085 2.7729,-0.73573 8.0002,-1.372 12.096,-1.4723 3.3044,-0.08094 5.1744,0.1764 5.864,0.80693 0.51129,0.46751 -0.10135,1.8663 -2.0337,4.6432 -3.947,5.672 -10.767,13.527 -17.762,20.457 -4.0753,4.0375 -6.709,6.3893 -10.173,9.083796 -4.9787,3.8728 -11.007,9.7597 -15.406,15.043 -1.9984,2.4007 -3.3101,4.2576 -4.3962,6.2236 -1.2293,2.2249 -2.1308,3.3283 -6.1821,7.5663 -3.8046,3.9799 -5.0478,5.5137 -5.8318,7.1953 -0.47816,1.0256 -0.52739,1.3004 -0.52794,2.9475 -9.2e-4,2.9261 -0.6228,8.1174 -1.826,15.243 -2.2801,13.503 -5.1207,24.827 -7.3338,29.237 -0.83165,1.657 -2.626,4.0892 -4.4867,6.0816 -0.98154,1.051 -2.0504,2.0817 -4.2088,4.0586 -2.4813,2.2726 -3.441,3.3738 -3.6611,4.2008 -0.5771,2.1677 -1.1892,3.3151 -2.3193,4.348 -0.66242,0.60545 -1.2691,0.99698 -2.8663,1.8497 -3.945,2.1063 -6.3225,3.9164 -6.9859,5.3187 -0.56754,1.1996 -0.18988,1.7019 2.4751,3.2922 1.8953,1.131 3.9236,2.215 7.6761,4.1023 8.5159,4.2833 15.697,7.3968 18.27,7.9211 1.0858,0.2213 1.2262,0.28072 1.1943,0.50568 -0.0272,0.1915 -0.23543,0.30945 -2.2568,1.2782 -1.0396,0.4982 -1.731,0.9826 -2.0202,1.4154 -0.26343,0.39412 -0.20972,0.89038 0.18155,1.6768 1.158,2.3278 4.3631,5.4472 6.4202,6.2485 1.0136,0.39485 1.1994,0.39014 3.4119,-0.0865 10.719,-2.3096 23.458,-5.4443 27.879,-6.8604 5.3372,-1.7096 16.547,-4.4992 28.569,-7.1096 1.2276,-0.2665 2.378,-0.556 2.5566,-0.64334 0.98547,-0.48187 2.7905,-2.2057 5.5216,-5.2731 2.064,-2.3182 3.438,-3.7396 3.9293,-4.0651 0.46851,-0.31027 0.75409,-0.29388 0.82654,0.0476 0.27325,1.2881 -0.52667,5.8948 -1.6042,9.2385 -0.86844,2.6948 -1.892,4.601 -2.8314,5.273 -0.17749,0.12695 -0.90707,0.61533 -1.6213,1.0852 -4.1553,2.7341 -7.7665,5.9639 -8.5414,7.6396 -0.18561,0.40135 -0.19492,0.4848 -0.14157,1.2674 0.0873,1.2808 -0.12775,1.8722 -1.3523,3.7201 -0.36258,0.54715 -0.75882,1.215 -0.88052,1.4843 -0.39249,0.86829 -1.2866,1.521 -5.5601,4.0592 -4.0596,2.4112 -5.6616,3.4859 -6.6435,4.4568 -0.55896,0.55275 -0.7785,0.98698 -0.78143,1.5455 -0.009,1.8162 -1.1857,5.5494 -2.176,6.9059 -0.39117,0.53586 -1.0864,0.80011 -4.6025,1.7494 -1.1606,0.31335 -2.971,0.8027 -4.0231,1.0874 -4.695,1.2705 -7.0413,2.1206 -8.1341,2.9469 -0.45671,0.34541 -0.54604,0.51914 -1.6512,3.2123 -1.3593,3.3124 -2.3027,5.0685 -3.0344,5.648 -0.59245,0.46922 -1.5595,0.50478 -4.3811,0.161 -3.5414,-0.43156 -5.5322,-0.51298 -6.8633,-0.2809 -1.1056,0.19282 -1.8739,0.58971 -2.2457,1.16 -0.69606,1.0678 -0.86054,1.2707 -1.2633,1.5592 -0.94151,0.67418 -1.846,0.86725 -4.5616,0.97357 -2.5584,0.10027 -2.975,0.16415 -4.8205,0.73949 -4.5935,1.4321 -7.824,2.1778 -10.009,2.3105 -1.0698,0.0649 -1.5517,-0.0265 -2.3768,-0.45096 -1.2964,-0.6669 -3.9027,-1.3971 -6.1249,-1.7161 -0.96454,-0.13841 -1.4657,-0.16658 -2.4349,-0.13687 -1.5006,0.0459 -1.7515,0.13185 -2.7624,0.94624 -0.53102,0.42773 -1.0628,0.75156 -1.9479,1.1862 -0.9641,0.47336 -2.598,1.1265 -3.2576,1.3023 -0.25143,0.0669 -0.24759,8.124 0.005,9.4859 0.15965,0.86235 0.31039,1.2102 0.5771,1.3318 0.19763,0.09 0.70254,0.20016 5.4761,1.1953 5.6918,1.1865 8.9272,2.2062 10.051,3.1679 0.6687,0.57231 0.69679,0.55933 -1.2371,0.57263 -4.4939,0.0309 -10.621,0.79753 -11.762,1.4716 l -0.2581,0.1526 0.0219,0.8052 c 0.0353,1.2987 0.24762,3.1207 0.46397,3.9822 0.23172,0.9227 0.7675,2.0633 1.3053,2.7787 1.1098,1.4763 3.0149,3.0041 5.833,4.6776 1.7837,1.0592 1.6803,1.0421 -1.821,-0.30171 -4.0776,-1.5651 -4.3357,-1.6343 -4.5978,-1.2343 -0.51091,0.77971 0.46693,4.0836 2.3311,7.8761 0.35388,0.71999 0.64345,1.3683 0.64345,1.4406 0,0.62338 -2.0251,-0.90678 -3.7087,-2.8023 -2.1986,-2.4754 -3.431,-4.4034 -4.1518,-6.4953 -0.17961,-0.52126 -0.38818,-1.0691 -0.46347,-1.2174 -0.47119,-0.92847 -1.2233,-1.4985 -1.8794,-1.4245 -1.0144,0.11427 -1.8793,1.3583 -2.3549,3.3868 -0.10988,0.46866 -0.39641,1.6739 -0.63675,2.6784 -0.60643,2.5344 -0.71027,3.1837 -0.71387,4.4639 -0.005,1.7462 0.35326,2.7455 1.3178,3.6767 0.64824,0.62582 1.0621,0.84494 2.5612,1.356 5.4508,1.8582 10.15,5.4173 11.978,9.0705 0.34763,0.69507 0.70409,1.836 0.78279,2.5056 0.0867,0.73767 -0.10866,0.60281 -1.4912,-1.0289 -0.80995,-0.95596 -1.6803,-1.7842 -2.2748,-2.1644 -0.71414,-0.45679 -1.197,-0.59195 -2.1154,-0.59195 -1.1617,0 -1.3967,-0.0935 -3.4172,-1.3597 -1.1724,-0.73465 -2.4952,-1.3517 -3.4558,-1.6121 -0.72916,-0.1976 -0.9518,-0.22031 -2.1914,-0.22363 -1.2353,-0.003 -1.4816,0.0201 -2.3519,0.22427 -1.3881,0.32553 -2.4032,0.70123 -3.9788,1.4724 -1.708,0.83597 -2.6721,1.3993 -3.1873,1.8626 -0.95665,0.86011 -1.3974,2.4413 -1.2272,4.4022 0.24994,2.8784 1.7395,6.2674 2.8989,6.5956 0.90652,0.25671 2.7604,0.43286 5.6446,0.53644 l 1.5319,0.0551 -0.5721,0.265 c -1.8727,0.86746 -3.0423,2.116 -2.907,3.1034 0.0642,0.46866 0.5867,1.4099 2.2626,4.0762 1.7355,2.7611 2.1874,3.5006 2.156,3.5276 -0.0145,0.0124 -0.53766,-0.49554 -1.1626,-1.1288 z m 0.3492,-58.209 c 0.0135,-0.18451 -0.067,-0.82367 -0.17888,-1.4203 -0.37202,-1.9846 -0.41301,-2.4141 -0.41339,-4.3314 -2.6e-4,-1.2632 0.0506,-2.37 0.15738,-3.4232 0.12415,-1.2249 0.13748,-1.601 0.0626,-1.7652 -0.12283,-0.26959 -0.34788,-0.26846 -0.81296,0.004 l -0.3633,0.213 -0.6989,-0.1699 c -1.8059,-0.43903 -3.3815,-0.58328 -4.2803,-0.39203 -1.155,0.2458 -1.8199,0.74847 -2.904,2.1954 -1.5434,2.0599 -2.4019,3.545 -2.4019,4.1549 0,0.58189 0.20917,0.68248 1.9146,0.92073 2.2739,0.31775 2.4732,0.40186 6.5263,2.7536 2.2584,1.3105 2.9155,1.6464 3.1653,1.6184 0.17531,-0.0196 0.20622,-0.0684 0.2274,-0.35815 z"
         inkscape:connector-curvature="0" />
      <path
         d="m 347.34616,385.95496 -16.79663,0.80065 -5.87896,8.09804 22.12149,-1.30893 c -4.38635,56.03832 -1.1676,82.71853 1.60174,134.77376 9.14796,-19.73525 15.86399,-40.80969 29.64162,-58.01404 -3.90364,-22.22366 -5.89921,-46.8791 -2.42951,-78.49714 l 23.31673,-1.36405 -5.12883,-6.72664 -17.37223,0.82559 -0.14792,-7.50513 c 4.27598,-1.00034 10.42962,-3.3785 11.57225,-5.73511 1.18719,-3.26808 3.32594,-5.14037 2.70107,-10.2111 -0.34442,-2.79492 -3.20922,-6.71104 -3.92637,-9.10342 -0.71722,-2.39229 3.11135,-3.24889 2.57488,-6.68232 -0.51941,-3.32445 -5.56432,-4.10143 -6.17091,-8.29148 -0.6066,-4.19005 3.52155,-5.11281 2.78456,-8.49857 -0.73691,-3.38569 -5.00599,-3.44597 -6.11667,-7.80815 -1.11065,-4.36218 2.40416,-5.1583 1.6563,-7.91634 -0.59778,-2.2045 -1.50593,-2.65219 -5.23041,-5.35489 1.8317,-1.168 5.33179,-3.66357 5.4694,-5.9565 0.20585,-3.42975 -6.32295,-8.14053 -6.32304,-8.1406 -7.44103,-0.34853 -55.17763,1.14616 -28.72998,17.01795 -0.41035,0.29042 0.42093,-0.35686 -0.0269,-0.0465 9.17903,18.69998 4.40579,62.52802 0.8381,75.64463 z"
         id="path5312"
         inkscape:connector-curvature="0"
         sodipodi:nodetypes="ccccccccccccszszzzscsccccc" />
    </g>
    <g
       transform="matrix(3.2580593,0,0,3.2580593,99.301759,584.3933)"
       id="Ebene_x0020_1">
      <metadata
         id="CorelCorpID_0Corel-Layer" />
      <path
         style="fill:#000000"
         inkscape:connector-curvature="0"
         d="m 83.526,24.3292 5.0006,5.0005 9.8445,19.7439 -19.7439,-9.8445 -4.825,-4.8248 -19.3012,19.9984 31.5273,30.4582 c 0.7699,0.7437 0.818,1.9607 0.1092,2.7628 -1.3648,1.5446 -2.826,3.0058 -4.3705,4.3705 -0.8021,0.7088 -2.0191,0.6608 -2.7628,-0.1091 L 48.6498,60.4652 18.3252,91.8838 c -0.7436,0.7704 -1.961,0.8188 -2.7634,0.1098 -1.5441,-1.3645 -3.005,-2.8251 -4.3693,-4.3692 -0.709,-0.8023 -0.6607,-2.0199 0.1098,-2.7635 L 42.8251,54.4359 21.9463,32.8233 c -3.7644,4.233 -6.9481,8.9965 -9.4369,14.166 L 1.6289,37.5225 C 8.5287,24.8421 18.9669,14.4129 31.6347,7.5042 l 9.4619,10.879 c -5.1582,2.4839 -9.9086,5.6625 -14.1303,9.4194 L 48.6829,48.7821 68.7817,29.3838 57.414,18.0159 67.3134,8.1165 78.8567,19.66 l 1.4376,-1.3877 4.6204,4.618 -1.3887,1.4389 z"
         id="path6367" />
    </g>
  </g>
</svg>
